<?xml version="1.0" encoding="UTF-8"?>
<!-- WorshipHub - FCM Notification Icon (transparent background, white shapes) -->
<svg version="1.1" xmlns="http://www.w3.org/2000/svg" width="512" height="512">
  <!-- No background - FCM requires transparent PNG, but this SVG source uses white
       so it can be converted to PNG with alpha channel for FCM -->
  <g transform="translate(256, 256) scale(1.55) translate(-256, -256)">
    <path d="M0 0 C8.58 0 17.16 0 26 0 C26 15.84 26 31.68 26 48 C47.45 48 68.9 48 91 48 C91 56.58 91 65.16 91 74 C69.55 74 48.1 74 26 74 C26 90.5 26 107 26 124 C21.545 124.99 21.545 124.99 17 126 C14.72064628 126.65870091 12.44854139 127.34345056 10.1875 128.0625 C6.79533733 129.13648221 3.45406359 130.1364841 0 131 C0 112.19 0 93.38 0 74 C-21.12 74 -42.24 74 -64 74 C-64 65.42 -64 56.84 -64 48 C-42.88 48 -21.76 48 0 48 C0 32.16 0 16.32 0 0 Z " fill="white" transform="translate(243,187)"/>
    <path d="M0 0 C6.27 0 12.54 0 19 0 C19.11335761 10.87535472 19.20492077 21.75031141 19.25906086 32.62612534 C19.28505693 37.67724463 19.32027071 42.72793569 19.37719727 47.77880859 C19.43187559 52.66124885 19.4614955 57.54327949 19.47438622 62.4260025 C19.48356222 64.2805958 19.50147958 66.13516892 19.52865028 67.98958588 C19.76065741 84.49380202 16.64888013 95.90492888 4.97265625 108.12109375 C-5.32715126 117.97389334 -18.45541216 122.97632461 -32.625 123.375 C-43.26501779 123.06990988 -50.91516886 119.98975566 -58.5 112.5234375 C-63.71303832 106.72082938 -65.55368546 100.78217482 -65.4375 93.125 C-65.42992676 92.42246094 -65.42235352 91.71992188 -65.41455078 90.99609375 C-65.11357749 81.48797395 -60.99517632 75.08918659 -55 68 C-54.52175781 67.41476562 -54.04351562 66.82953125 -53.55078125 66.2265625 C-44.68438574 56.35515994 -31.48428546 50.63159543 -18.421875 49.76171875 C-11.63466125 49.62453039 -6.76165035 50.30958741 0 52 C0 34.84 0 17.68 0 0 Z " fill="white" transform="translate(288,273)"/>
    <path d="M0 0 C4.95 0 9.9 0 15 0 C16.0209375 3.5578125 16.0209375 3.5578125 17.0625 7.1875 C20.93448878 19.86959105 27.14029547 30.13640808 36 40 C36.55171875 40.62261719 37.1034375 41.24523437 37.671875 41.88671875 C41.70444731 46.16883143 46.34254546 49.63141148 51.02148438 53.16601562 C56.2861559 57.16136336 61.19162786 61.46455716 66 66 C66.78246094 66.71800781 67.56492187 67.43601562 68.37109375 68.17578125 C80.10975937 79.3205852 88.44730725 94.38109425 89.37109375 110.7265625 C89.90510153 132.10200763 82.04193591 150.07600079 67.3828125 165.7265625 C66.27953844 166.84230294 65.14472045 167.92682458 64 169 C63.01 168.67 62.02 168.34 61 168 C61.93582118 162.86562975 64.80081836 158.46228013 67.2109375 153.8984375 C71.1173548 145.82165578 72.56193975 138.05922093 72.5 129.125 C72.49141968 127.67927612 72.49141968 127.67927612 72.48266602 126.2043457 C72.15694993 113.19653929 66.93046403 104.00789938 57.90234375 94.87890625 C47.06741267 84.77012576 33.58789861 78.43131643 19 76 C19 86.23 19 96.46 19 107 C12.73 107 6.46 107 0 107 C0 71.69 0 36.38 0 0 Z " fill="white" transform="translate(288,116)"/>
    <path d="M0 0 C-0.845625 0.99 -1.69125 1.98 -2.5625 3 C-3.11035156 3.64582031 -3.65820312 4.29164063 -4.22265625 4.95703125 C-5.36725816 6.27269455 -6.54026247 7.56443529 -7.74609375 8.82421875 C-16.79503364 18.43745779 -21.55119064 30.19986654 -21.3984375 43.3671875 C-20.68027572 49.9151331 -18.33942083 55.87915469 -16 62 C-15.67 62.99 -15.34 63.98 -15 65 C-18.49416631 63.7100238 -21.43465433 62.19403258 -24.51171875 60.1015625 C-25.35283203 59.53953125 -26.19394531 58.9775 -27.06054688 58.3984375 C-28.79481328 57.2276465 -30.52664169 56.05323501 -32.25585938 54.875 C-45.9637204 45.74337547 -58.72456007 43.51621675 -75 45 C-82.27276603 46.46351349 -88.70374668 50.22224801 -95 54 C-95.66 54 -96.32 54 -97 54 C-94.71047181 35.86452674 -89.80415823 15.10057752 -74.6875 3.17578125 C-51.9783478 -13.33681875 -25.10602811 -9.59336034 0 0 Z " fill="white" transform="translate(232,325)"/>
  </g>
</svg>
